<mxfile host="app.diagrams.net" agent="Mozilla/5.0 (Windows NT 10.0; Win64; x64) AppleWebKit/537.36 (KHTML, like Gecko) Chrome/135.0.0.0 Safari/537.36" version="26.2.8">
  <diagram name="Page-1" id="TEPnInE2OypxSfE0xe_M">
    <mxGraphModel dx="1030" dy="521" grid="1" gridSize="10" guides="1" tooltips="1" connect="1" arrows="1" fold="1" page="1" pageScale="1" pageWidth="827" pageHeight="1169" math="0" shadow="0">
      <root>
        <mxCell id="0" />
        <mxCell id="1" parent="0" />
        <mxCell id="52hkqS42lsV6TTl6kmYS-10" value="ABS" style="html=1;outlineConnect=0;whiteSpace=wrap;fillColor=#99ffff;shape=mxgraph.archimate3.application;appType=comp;archiType=square;rounded=1;fontFamily=Poppins;fontSource=https%3A%2F%2Ffonts.googleapis.com%2Fcss%3Ffamily%3DPoppins;verticalAlign=top;" vertex="1" parent="1">
          <mxGeometry x="640" y="120" width="370" height="440" as="geometry" />
        </mxCell>
        <mxCell id="52hkqS42lsV6TTl6kmYS-11" value="&lt;font data-font-src=&quot;https://fonts.googleapis.com/css?family=Poppins&quot; face=&quot;Poppins&quot;&gt;Policy&lt;br&gt;Administration&lt;/font&gt;" style="html=1;outlineConnect=0;whiteSpace=wrap;fillColor=#99ffff;shape=mxgraph.archimate3.application;appType=func;archiType=rounded;rounded=1;" vertex="1" parent="1">
          <mxGeometry x="660" y="160" width="330" height="60" as="geometry" />
        </mxCell>
        <mxCell id="52hkqS42lsV6TTl6kmYS-12" value="&lt;font face=&quot;Poppins&quot;&gt;Business&lt;br&gt;Partner &amp;amp;&lt;br&gt;Agreement&lt;/font&gt;" style="html=1;outlineConnect=0;whiteSpace=wrap;fillColor=#99ffff;shape=mxgraph.archimate3.application;appType=func;archiType=rounded;rounded=1;" vertex="1" parent="1">
          <mxGeometry x="660" y="320" width="150" height="60" as="geometry" />
        </mxCell>
        <mxCell id="52hkqS42lsV6TTl6kmYS-13" value="&lt;font face=&quot;Poppins&quot;&gt;Claim&lt;br&gt;Handling&lt;/font&gt;" style="html=1;outlineConnect=0;whiteSpace=wrap;fillColor=#99ffff;shape=mxgraph.archimate3.application;appType=func;archiType=rounded;rounded=1;" vertex="1" parent="1">
          <mxGeometry x="840" y="240" width="150" height="60" as="geometry" />
        </mxCell>
        <mxCell id="52hkqS42lsV6TTl6kmYS-14" value="&lt;font face=&quot;Poppins&quot;&gt;CMC &amp;amp;&lt;br&gt;Product&lt;br&gt;Configuration&lt;/font&gt;" style="html=1;outlineConnect=0;whiteSpace=wrap;fillColor=#99ffff;shape=mxgraph.archimate3.application;appType=func;archiType=rounded;rounded=1;" vertex="1" parent="1">
          <mxGeometry x="660" y="240" width="150" height="60" as="geometry" />
        </mxCell>
        <mxCell id="52hkqS42lsV6TTl6kmYS-15" value="&lt;font face=&quot;Poppins&quot;&gt;Case&lt;br&gt;Handling&lt;/font&gt;" style="html=1;outlineConnect=0;whiteSpace=wrap;fillColor=#99ffff;shape=mxgraph.archimate3.application;appType=func;archiType=rounded;rounded=1;" vertex="1" parent="1">
          <mxGeometry x="840" y="320" width="150" height="60" as="geometry" />
        </mxCell>
        <mxCell id="52hkqS42lsV6TTl6kmYS-16" value="&lt;font face=&quot;Poppins&quot;&gt;Provider&lt;br&gt;Management&lt;/font&gt;" style="html=1;outlineConnect=0;whiteSpace=wrap;fillColor=#99ffff;shape=mxgraph.archimate3.application;appType=func;archiType=rounded;rounded=1;" vertex="1" parent="1">
          <mxGeometry x="840" y="400" width="150" height="60" as="geometry" />
        </mxCell>
        <mxCell id="52hkqS42lsV6TTl6kmYS-17" value="&lt;font face=&quot;Poppins&quot;&gt;Payments and&lt;br&gt;Accounting&lt;/font&gt;" style="html=1;outlineConnect=0;whiteSpace=wrap;fillColor=#99ffff;shape=mxgraph.archimate3.application;appType=func;archiType=rounded;rounded=1;" vertex="1" parent="1">
          <mxGeometry x="660" y="400" width="150" height="60" as="geometry" />
        </mxCell>
        <mxCell id="52hkqS42lsV6TTl6kmYS-19" value="&lt;font face=&quot;Poppins&quot;&gt;User &amp;amp; Org&lt;br&gt;Management&lt;/font&gt;" style="html=1;outlineConnect=0;whiteSpace=wrap;fillColor=#99ffff;shape=mxgraph.archimate3.application;appType=func;archiType=rounded;rounded=1;" vertex="1" parent="1">
          <mxGeometry x="660" y="480" width="150" height="60" as="geometry" />
        </mxCell>
        <mxCell id="52hkqS42lsV6TTl6kmYS-20" value="&lt;font face=&quot;Poppins&quot;&gt;Workload&lt;br&gt;Management&lt;/font&gt;" style="html=1;outlineConnect=0;whiteSpace=wrap;fillColor=#99ffff;shape=mxgraph.archimate3.application;appType=func;archiType=rounded;rounded=1;" vertex="1" parent="1">
          <mxGeometry x="840" y="480" width="150" height="60" as="geometry" />
        </mxCell>
        <mxCell id="52hkqS42lsV6TTl6kmYS-23" style="edgeStyle=orthogonalEdgeStyle;rounded=1;orthogonalLoop=1;jettySize=auto;html=1;" edge="1" parent="1" source="52hkqS42lsV6TTl6kmYS-21" target="52hkqS42lsV6TTl6kmYS-14">
          <mxGeometry relative="1" as="geometry" />
        </mxCell>
        <mxCell id="52hkqS42lsV6TTl6kmYS-21" value="APL" style="html=1;outlineConnect=0;whiteSpace=wrap;fillColor=#99ffff;shape=mxgraph.archimate3.application;appType=comp;archiType=square;rounded=1;fontFamily=Poppins;fontSource=https%3A%2F%2Ffonts.googleapis.com%2Fcss%3Ffamily%3DPoppins;" vertex="1" parent="1">
          <mxGeometry x="480" y="240" width="140" height="60" as="geometry" />
        </mxCell>
        <mxCell id="52hkqS42lsV6TTl6kmYS-24" style="edgeStyle=orthogonalEdgeStyle;rounded=1;orthogonalLoop=1;jettySize=auto;html=1;startArrow=classic;startFill=1;" edge="1" parent="1" source="52hkqS42lsV6TTl6kmYS-22" target="52hkqS42lsV6TTl6kmYS-11">
          <mxGeometry relative="1" as="geometry" />
        </mxCell>
        <mxCell id="52hkqS42lsV6TTl6kmYS-22" value="BIOS" style="html=1;outlineConnect=0;whiteSpace=wrap;fillColor=#99ffff;shape=mxgraph.archimate3.application;appType=comp;archiType=square;rounded=1;fontFamily=Poppins;fontSource=https%3A%2F%2Ffonts.googleapis.com%2Fcss%3Ffamily%3DPoppins;" vertex="1" parent="1">
          <mxGeometry x="480" y="160" width="140" height="60" as="geometry" />
        </mxCell>
      </root>
    </mxGraphModel>
  </diagram>
</mxfile>
